<svg xmlns="http://www.w3.org/2000/svg" xmlns:xlink="http://www.w3.org/1999/xlink" width="267" height="49" viewBox="0 0 267 49"><defs><clipPath id="b"><rect width="267" height="49"/></clipPath></defs><g id="a" clip-path="url(#b)"><g transform="translate(3 1)"><g transform="translate(0)"><path d="M3.792,147.134a7.426,7.426,0,0,1,4.441,1.531,4.083,4.083,0,0,1,1.838,3.591,2.024,2.024,0,0,0,1.168,2.038c2.322,1.28,4.623,2.6,6.925,3.911a.53.53,0,0,0,.729-.046c2.893-2.429,5.73-4.916,8.476-7.5a1.491,1.491,0,0,0,.538-1.577,2.3,2.3,0,0,1,1.029-2.715c1.684-1.394,3.415-2.756,5.124-4.124.153-.127.306-.273.459-.4s.328-.351.516-.153c.217.237-.035.4-.2.557l-2.946,2.779c-.594.559-1.185,1.121-1.786,1.672-.227.208-.418.412-.129.7s.45.008.626-.153q2.378-2.268,4.747-4.536c.153-.153.322-.435.551-.184s-.086.387-.239.533q-2.343,2.25-4.687,4.495c-.188.181-.531.343-.231.671s.495.044.7-.153l4.671-4.507c.162-.153.345-.412.564-.193s-.04.406-.2.559q-2.325,2.211-4.652,4.421c-.2.187-.524.355-.256.675.306.371.531.04.746-.165q2.3-2.193,4.586-4.387c.164-.153.325-.541.594-.291.323.3-.092.475-.254.66-1.421,1.635-2.853,3.263-4.28,4.9a9.677,9.677,0,0,1-1.139,1.119,1.62,1.62,0,0,1-1.718.319,1.776,1.776,0,0,0-2.122.554c-2.3,2.214-4.476,4.54-6.675,6.85-.79.832-.778.835.24,1.331a19.174,19.174,0,0,0,3.619,1.436,7.931,7.931,0,0,1,1.609.8,1.254,1.254,0,0,1,.538.632,2.41,2.41,0,0,1-.9,2.443,1.469,1.469,0,0,1-1.962.126,5.777,5.777,0,0,1-1.217-1.04,21.214,21.214,0,0,0-3.522-3.047c-.343-.233-.513-.262-.8.08a24.642,24.642,0,0,0-1.822,2.533c-.123.194-.24.392-.377.577-.513.7-1.072,1.341-2.069,1.144a3.249,3.249,0,0,1-2.017-2.144,1.678,1.678,0,0,1,.786-1.562,24.784,24.784,0,0,1,3-1.838c.807-.487.8-.484.047-1.024-1.926-1.378-3.972-2.585-5.951-3.89A1.994,1.994,0,0,0,8.412,155a5.177,5.177,0,0,1-1.926.694,4.9,4.9,0,0,1-2.867-.919,7.79,7.79,0,0,1-2.746-3.1A3.043,3.043,0,0,1,3.792,147.134Z" transform="translate(-0.499 -120.14)" fill="#fff"/><path d="M36.751,15.934c2.934-.394,4.6-2.262,4.594-4.988A6.646,6.646,0,0,0,39.691,6.6a2.968,2.968,0,0,0-3.726-.853c-.907.4-.907.4-1.072-.55-.519-3.162-3.158-4.6-6.086-3.32a6.629,6.629,0,0,0-2.867,2.34.569.569,0,0,1-.753.286,3.767,3.767,0,0,0-4.874,1.813,1.623,1.623,0,0,1-1.782,1.087,5.016,5.016,0,0,0-4.559,4.318,4.454,4.454,0,0,0,4.021,4.983.836.836,0,0,1,.8.648c1.507,4.816,3.043,9.623,4.54,14.442.181.582.319.493.68.153A15.418,15.418,0,0,1,26.632,30a23.137,23.137,0,0,1,6.963-2.893,7.445,7.445,0,0,1,4.075.046c.473.164.441-.047.371-.4-.657-3.276-1.283-6.557-1.96-9.828C35.945,16.283,35.973,16.038,36.751,15.934ZM25.826,5.149c.893-.17,2.205,1.979,2.6,3.9.415,2-.008,4.516-.919,4.7-.842.173-2.021-1.66-2.488-3.191C24.31,8.242,24.861,5.333,25.826,5.149Zm-5.8,2.887c.3-.054.666.522.818.977.271.81.055,1.851-.358,1.949-.112.026-.329,0-.7-.441a2.893,2.893,0,0,1-.221-1.286C19.577,9.147,19.652,8.1,20.03,8.035ZM34.783,15.92c.7,3.237,1.378,6.481,2.07,9.719.078.366.083.6-.415.533a13.333,13.333,0,0,0-12.121,4.634c-.132.142-.2.413-.439.375-.3-.047-.224-.357-.28-.559-1.277-4.539-2.557-9.078-3.81-13.629-.133-.485-.294-.744-.85-.755a5.084,5.084,0,0,1-2.057-.548A3.87,3.87,0,0,1,15.1,14.049a4.054,4.054,0,0,1-.3-2.956c.75-2.6,4.087-3.562,4.363-3.216.095.116-.187.361-.257,1.072a3.3,3.3,0,0,0,.074,1.029c.173.707.766,1.894,1.488,1.838.593-.044,1.089-.884,1.124-1.488a3.175,3.175,0,0,0-.894-2.45.9.9,0,0,1-.142-1.214,3.238,3.238,0,0,1,3.919-1.74c.548.153.341.459.236.756a9.906,9.906,0,0,0-.443,4.972,5.556,5.556,0,0,0,2.121,3.593,1.5,1.5,0,0,0,2.514-.56c1.213-2.3.553-6.116-1.427-8.283-.828-.907-.824-.9.133-1.738a5.406,5.406,0,0,1,1.531-1,3.426,3.426,0,0,1,4.7,2.009,19.859,19.859,0,0,1,.544,1.96c.109.444.205.881.364.888.135,0,.2-.306.384-.594A2.384,2.384,0,0,1,36.55,6,2.955,2.955,0,0,1,39.7,7.3a5.064,5.064,0,0,1-2.851,7.931,3.976,3.976,0,0,1-1.657.214C34.831,15.4,34.693,15.5,34.783,15.92Z" transform="translate(-11.905 -1.415)" fill="#fff" stroke="#fff" stroke-miterlimit="10" stroke-width="0.8"/></g></g><path d="M3.52-11.392A28.953,28.953,0,0,0,9.28-13.92,12.434,12.434,0,0,0,12.032-16a2.7,2.7,0,0,0,.96-1.856,2.281,2.281,0,0,0-1.632-2.208,5.98,5.98,0,0,0-3.584-.064,15.571,15.571,0,0,0-4.256,2.08Q3.584-15.1,3.52-11.392ZM4.576-9.7a116.938,116.938,0,0,0,9.312,8.16.8.8,0,0,1,.352.624,1.026,1.026,0,0,1-.208.72.851.851,0,0,1-.64.352.989.989,0,0,1-.72-.224A117.858,117.858,0,0,1,3.456-8.1Q3.392-6.848,3.312-4.3T3.2-.48a.87.87,0,0,1-.288.656.967.967,0,0,1-.688.272A.887.887,0,0,1,1.552.16a.987.987,0,0,1-.272-.7q.032-.928.16-4.976t.16-5.744q.032-1.7.016-4.736t-.144-5.472a.882.882,0,0,1,.24-.7,1,1,0,0,1,.672-.32.86.86,0,0,1,.688.24.989.989,0,0,1,.32.656l.064,1.312a14.483,14.483,0,0,1,3.872-1.7A7.842,7.842,0,0,1,12-21.856a4.428,4.428,0,0,1,2.064,1.44,4.2,4.2,0,0,1,.848,2.5,4.444,4.444,0,0,1-1.472,3.232,15.211,15.211,0,0,1-3.2,2.4A30.561,30.561,0,0,1,4.576-9.7ZM17.728-6.624A11.825,11.825,0,0,0,21.344-8.96a8.436,8.436,0,0,0,2.176-3.36q.416-1.216-.384-1.664a2.127,2.127,0,0,0-2.208.256,5.071,5.071,0,0,0-1.568,1.7,9.588,9.588,0,0,0-1.152,2.72A14.3,14.3,0,0,0,17.728-6.624Zm.1,1.888q.1.448.192.8A3.516,3.516,0,0,0,20.1-1.872a3.761,3.761,0,0,0,2.976.08A3.775,3.775,0,0,0,23.536-2q.208-.112.5-.3l.384-.32.512-.448a5.81,5.81,0,0,0,.48-.384.9.9,0,0,1,.656-.192.861.861,0,0,1,.608.32.871.871,0,0,1,.208.656.916.916,0,0,1-.32.624,4.846,4.846,0,0,0-.448.352q-.384.32-.544.448l-.512.384a7.616,7.616,0,0,1-.656.432,4.809,4.809,0,0,1-.624.3,6.352,6.352,0,0,1-2.944.32A5.685,5.685,0,0,1,18.1-.96a4.916,4.916,0,0,1-1.744-2.4,10.714,10.714,0,0,1,.128-6.432q1.12-3.968,3.488-5.472A4.726,4.726,0,0,1,22-15.936a3.43,3.43,0,0,1,1.968.384,2.668,2.668,0,0,1,1.312,1.52,3.654,3.654,0,0,1-.032,2.288,9.893,9.893,0,0,1-2.864,4.256,13.78,13.78,0,0,1-4.528,2.752ZM35.84-12.96q-1.7-1.888-3.168-1.024-1.536.928-2.368,3.84a10.261,10.261,0,0,0-.224,5.472A3.669,3.669,0,0,0,32.7-1.632,3.444,3.444,0,0,0,35.616-2.3a4.061,4.061,0,0,0,.512-.4q.224-.208.336-.336t.416-.512a7.005,7.005,0,0,1,.5-.576.808.808,0,0,1,.592-.32.871.871,0,0,1,.656.208.861.861,0,0,1,.32.608.842.842,0,0,1-.224.656q-.1.128-.448.56t-.48.576q-.128.144-.448.448a5.236,5.236,0,0,1-.7.56A5.087,5.087,0,0,1,32.32.1a4.588,4.588,0,0,1-2.592-1.52,6.879,6.879,0,0,1-1.408-2.8,12.312,12.312,0,0,1,.256-6.432q1.024-3.552,3.168-4.864a3.416,3.416,0,0,1,2.672-.432,5.649,5.649,0,0,1,2.768,1.776.842.842,0,0,1,.224.656.943.943,0,0,1-.3.624.8.8,0,0,1-.64.224A.975.975,0,0,1,35.84-12.96ZM41.6-6.624A11.825,11.825,0,0,0,45.216-8.96a8.436,8.436,0,0,0,2.176-3.36q.416-1.216-.384-1.664a2.127,2.127,0,0,0-2.208.256,5.071,5.071,0,0,0-1.568,1.7,9.588,9.588,0,0,0-1.152,2.72A14.3,14.3,0,0,0,41.6-6.624Zm.1,1.888q.1.448.192.8a3.516,3.516,0,0,0,2.08,2.064,3.761,3.761,0,0,0,2.976.08A3.776,3.776,0,0,0,47.408-2q.208-.112.5-.3l.384-.32.512-.448a5.809,5.809,0,0,0,.48-.384.9.9,0,0,1,.656-.192.861.861,0,0,1,.608.32.871.871,0,0,1,.208.656.916.916,0,0,1-.32.624,4.847,4.847,0,0,0-.448.352q-.384.32-.544.448l-.512.384a7.617,7.617,0,0,1-.656.432,4.809,4.809,0,0,1-.624.3A6.352,6.352,0,0,1,44.7.192,5.685,5.685,0,0,1,41.968-.96a4.916,4.916,0,0,1-1.744-2.4,10.714,10.714,0,0,1,.128-6.432q1.12-3.968,3.488-5.472a4.727,4.727,0,0,1,2.032-.672,3.43,3.43,0,0,1,1.968.384,2.668,2.668,0,0,1,1.312,1.52,3.654,3.654,0,0,1-.032,2.288,9.893,9.893,0,0,1-2.864,4.256,13.78,13.78,0,0,1-4.528,2.752Zm12.1-9.856q-.128,2.4-.032,7.072.1,5.056.032,7.2a.807.807,0,0,1-.272.608.9.9,0,0,1-.64.256.825.825,0,0,1-.624-.272A.923.923,0,0,1,52-.384q.064-2.048-.032-7.1-.1-4.7.032-7.168a.958.958,0,0,1,.3-.64.8.8,0,0,1,.64-.224.943.943,0,0,1,.624.3A.774.774,0,0,1,53.792-14.592Zm-.16-5.088a.868.868,0,0,1,.256.64.868.868,0,0,1-.256.64.868.868,0,0,1-.64.256.868.868,0,0,1-.64-.256.868.868,0,0,1-.256-.64.868.868,0,0,1,.256-.64.868.868,0,0,1,.64-.256A.868.868,0,0,1,53.632-19.68Zm1.7,5.728q.992.064,2.3.032.064-7.392.064-7.936a.842.842,0,0,1,.272-.64.943.943,0,0,1,.672-.256.943.943,0,0,1,.672.256.842.842,0,0,1,.272.64q0,.7-.064,7.872,1.952-.064,2.848-.064a.964.964,0,0,1,.688.256.842.842,0,0,1,.272.64.842.842,0,0,1-.272.64.964.964,0,0,1-.688.256q-.864,0-2.88.064A112.711,112.711,0,0,0,59.936-.544a.864.864,0,0,1-.224.672.93.93,0,0,1-.64.32A.947.947,0,0,1,58.384.24a.83.83,0,0,1-.336-.592A116.461,116.461,0,0,1,57.6-12.128q-1.376.032-2.4-.032a1.02,1.02,0,0,1-.656-.3.773.773,0,0,1-.24-.64.916.916,0,0,1,.32-.624A.91.91,0,0,1,55.328-13.952ZM74.5-2.08A18.1,18.1,0,0,0,73.28-4.816a7.272,7.272,0,0,0-1.664-2Q69.376-8.7,67.648-8.16a2.517,2.517,0,0,0-1.152.8,3.326,3.326,0,0,0-.672,1.376,3.6,3.6,0,0,0,.048,1.616,4.245,4.245,0,0,0,.816,1.584,4.039,4.039,0,0,0,1.92,1.216,9.118,9.118,0,0,0,3.1.416A4.55,4.55,0,0,0,74.5-2.08Zm-7.1-12.192q2.016-2.176,3.936-1.664a4.635,4.635,0,0,1,2.72,2.528,29.678,29.678,0,0,1,2.208,7.136,28.414,28.414,0,0,1,.416,3.264q0,.032.016.24t.048.5q.032.288.064.544.032.48.032.8a1.046,1.046,0,0,1,.016.3,1.477,1.477,0,0,0-.016.208.755.755,0,0,1-.16.352.715.715,0,0,1-.384.32,1,1,0,0,1-.7,0,1.363,1.363,0,0,1-.608-.48,6.054,6.054,0,0,1-3.2.864A10.162,10.162,0,0,1,67.92.08a6.087,6.087,0,0,1-2.56-1.648A5.745,5.745,0,0,1,64.144-3.84a5.073,5.073,0,0,1-.048-2.5,5.036,5.036,0,0,1,1.04-2.208,3.931,3.931,0,0,1,2-1.312q2.656-.864,5.632,1.7A9.139,9.139,0,0,1,74.4-6.4a23.877,23.877,0,0,0-1.952-6.144q-.8-1.472-1.568-1.664-.9-.224-2.144,1.152a.908.908,0,0,1-.624.272.875.875,0,0,1-.64-.224.827.827,0,0,1-.288-.608A.968.968,0,0,1,67.392-14.272ZM85.92-11.328a3.927,3.927,0,0,0-1.088-2.384,2.269,2.269,0,0,0-1.76-.592,2.372,2.372,0,0,0-1.52.624,1.472,1.472,0,0,0-.56,1.136,2.989,2.989,0,0,0,1.088,1.92q.32.288.7.576l.992.7q.576.416.864.64a8.177,8.177,0,0,1,2.5,2.56,4.787,4.787,0,0,1,.16,4.1A3.5,3.5,0,0,1,85.152.176a5.338,5.338,0,0,1-3.232.24A4.617,4.617,0,0,1,79.1-1.392a4.675,4.675,0,0,1-.736-3.6.856.856,0,0,1,.368-.592.937.937,0,0,1,.672-.16.792.792,0,0,1,.576.352.975.975,0,0,1,.176.656,3.022,3.022,0,0,0,.4,2.3,2.867,2.867,0,0,0,1.776,1.12A3.369,3.369,0,0,0,84.4-1.44a2.024,2.024,0,0,0,1.232-1.184,3.169,3.169,0,0,0-.064-2.656,6.611,6.611,0,0,0-1.984-1.984q-.192-.16-.832-.608L81.664-8.64a6.335,6.335,0,0,1-.8-.672,4.575,4.575,0,0,1-1.664-3.1,3,3,0,0,1,1.072-2.544A4.339,4.339,0,0,1,82.944-16.1a4.056,4.056,0,0,1,3.024.992,5.632,5.632,0,0,1,1.744,3.456.865.865,0,0,1-.16.672.879.879,0,0,1-.576.384.865.865,0,0,1-.672-.16A.879.879,0,0,1,85.92-11.328Zm21.088.768q-1.664-2.976-3.328-3.264a2.547,2.547,0,0,0-2.4,1.376,8.7,8.7,0,0,0-1.5,4.32,9.3,9.3,0,0,0,.864,4.9,2.747,2.747,0,0,0,3.264,1.6,4.071,4.071,0,0,0,1.872-.9,4.1,4.1,0,0,0,1.232-1.7.475.475,0,0,1,.128-.224Q106.976-7.168,107.008-10.56ZM109.12-20.8q-.032,1.44-.16,4.96t-.16,5.392q-.032,1.872.08,4.7a47.44,47.44,0,0,0,.464,5.168.975.975,0,0,1-.176.656.792.792,0,0,1-.576.352.937.937,0,0,1-.672-.16.856.856,0,0,1-.368-.592q-.1-.608-.16-1.28A5.746,5.746,0,0,1,104.256.128a4.776,4.776,0,0,1-2.96-.3A4.649,4.649,0,0,1,99.04-2.4a10.929,10.929,0,0,1-1.056-5.872A10.475,10.475,0,0,1,99.808-13.5q1.792-2.464,4.16-2.08a5.282,5.282,0,0,1,3.1,1.952q.032-.736.128-3.3t.128-3.936a.807.807,0,0,1,.272-.608.9.9,0,0,1,.64-.256.825.825,0,0,1,.624.272A.923.923,0,0,1,109.12-20.8Zm3.168,14.176A11.825,11.825,0,0,0,115.9-8.96a8.436,8.436,0,0,0,2.176-3.36q.416-1.216-.384-1.664a2.127,2.127,0,0,0-2.208.256,5.071,5.071,0,0,0-1.568,1.7,9.588,9.588,0,0,0-1.152,2.72A14.3,14.3,0,0,0,112.288-6.624Zm.1,1.888q.1.448.192.8a3.516,3.516,0,0,0,2.08,2.064,3.761,3.761,0,0,0,2.976.08A3.775,3.775,0,0,0,118.1-2q.208-.112.5-.3l.384-.32.512-.448a5.81,5.81,0,0,0,.48-.384.9.9,0,0,1,.656-.192.861.861,0,0,1,.608.32.871.871,0,0,1,.208.656.916.916,0,0,1-.32.624,4.848,4.848,0,0,0-.448.352q-.384.32-.544.448l-.512.384a7.616,7.616,0,0,1-.656.432,4.809,4.809,0,0,1-.624.3,6.352,6.352,0,0,1-2.944.32A5.685,5.685,0,0,1,112.656-.96a4.916,4.916,0,0,1-1.744-2.4,10.714,10.714,0,0,1,.128-6.432q1.12-3.968,3.488-5.472a4.726,4.726,0,0,1,2.032-.672,3.43,3.43,0,0,1,1.968.384,2.668,2.668,0,0,1,1.312,1.52,3.654,3.654,0,0,1-.032,2.288,9.893,9.893,0,0,1-2.864,4.256,13.78,13.78,0,0,1-4.528,2.752ZM141.44-16.768a7.9,7.9,0,0,0-2.528-3.072,4.2,4.2,0,0,0-2.88-.736A2.059,2.059,0,0,0,134.08-19.2q-.224.672.992,2.144.544.64,1.6,1.7l1.952,1.92q.64.64,1.12,1.168t1.072,1.264a14.41,14.41,0,0,1,.992,1.376,12.855,12.855,0,0,1,.768,1.44A7.42,7.42,0,0,1,143.1-6.64a7.758,7.758,0,0,1,.16,1.616,6.056,6.056,0,0,1-.256,1.728,5.566,5.566,0,0,1-1.2,2.144A4.6,4.6,0,0,1,139.984.112a7.086,7.086,0,0,1-2.144.416A4.9,4.9,0,0,1,135.712.16a5.837,5.837,0,0,1-3.424-3.12,7.421,7.421,0,0,1-.128-5.456.929.929,0,0,1,.48-.56.978.978,0,0,1,.736-.064.873.873,0,0,1,.56.464,1.035,1.035,0,0,1,.08.736,5.432,5.432,0,0,0,0,4.032,4.1,4.1,0,0,0,2.336,2.176,3.908,3.908,0,0,0,2.928-.048,3.248,3.248,0,0,0,1.872-2.192,4.909,4.909,0,0,0-.48-3.872,20.2,20.2,0,0,0-3.424-4.352l-1.952-1.92q-1.088-1.088-1.7-1.824-1.92-2.3-1.312-4a3.6,3.6,0,0,1,1.376-1.872,4.656,4.656,0,0,1,2.176-.784,6.128,6.128,0,0,1,4.144,1.056,9.72,9.72,0,0,1,3.184,3.84.99.99,0,0,1,.048.72.865.865,0,0,1-.48.544.987.987,0,0,1-.736.064A.913.913,0,0,1,141.44-16.768Zm5.184,1.6q0,.064-.08.912t-.112,1.328l-.1,1.44q-.064.992-.08,1.728t0,1.7q.016.96.08,1.76a9.622,9.622,0,0,0,1.056,4.064,1.79,1.79,0,0,0,2.176.832q.736-.192,1.28-1.7a17.286,17.286,0,0,0,.8-4q.064-.864.112-1.808t.048-1.872v-1.568q0-.64-.016-1.472t-.016-1.024a.884.884,0,0,1,.256-.624.825.825,0,0,1,.624-.272.9.9,0,0,1,.64.256.842.842,0,0,1,.272.64q0,.16.016.992t.016,1.5v1.6q0,.96-.048,1.936t-.144,1.872a18.711,18.711,0,0,1-.864,4.48A4.075,4.075,0,0,1,150.016.32a3.419,3.419,0,0,1-4.16-1.6,11.2,11.2,0,0,1-1.312-4.864q-.064-.864-.08-1.872t0-1.776q.016-.768.08-1.792l.1-1.536q.032-.48.112-1.312t.08-.864a.874.874,0,0,1,.32-.624.871.871,0,0,1,.656-.208.861.861,0,0,1,.608.32A.848.848,0,0,1,146.624-15.168Zm16.544,2.208q-1.7-1.888-3.168-1.024-1.536.928-2.368,3.84a10.261,10.261,0,0,0-.224,5.472,3.669,3.669,0,0,0,2.624,3.04,3.444,3.444,0,0,0,2.912-.672,4.061,4.061,0,0,0,.512-.4q.224-.208.336-.336t.416-.512a7,7,0,0,1,.5-.576.808.808,0,0,1,.592-.32.871.871,0,0,1,.656.208.861.861,0,0,1,.32.608.842.842,0,0,1-.224.656q-.1.128-.448.56t-.48.576q-.128.144-.448.448a5.236,5.236,0,0,1-.7.56,5.087,5.087,0,0,1-4.32.928,4.588,4.588,0,0,1-2.592-1.52,6.879,6.879,0,0,1-1.408-2.8,12.312,12.312,0,0,1,.256-6.432q1.024-3.552,3.168-4.864a3.416,3.416,0,0,1,2.672-.432,5.649,5.649,0,0,1,2.768,1.776.842.842,0,0,1,.224.656.943.943,0,0,1-.3.624.8.8,0,0,1-.64.224A.975.975,0,0,1,163.168-12.96Zm5.76,6.336a11.825,11.825,0,0,0,3.616-2.336,8.436,8.436,0,0,0,2.176-3.36q.416-1.216-.384-1.664a2.127,2.127,0,0,0-2.208.256,5.071,5.071,0,0,0-1.568,1.7,9.588,9.588,0,0,0-1.152,2.72A14.3,14.3,0,0,0,168.928-6.624Zm.1,1.888q.1.448.192.8a3.516,3.516,0,0,0,2.08,2.064,3.761,3.761,0,0,0,2.976.08A3.776,3.776,0,0,0,174.736-2q.208-.112.5-.3l.384-.32.512-.448a5.809,5.809,0,0,0,.48-.384.9.9,0,0,1,.656-.192.861.861,0,0,1,.608.32.871.871,0,0,1,.208.656.916.916,0,0,1-.32.624,4.845,4.845,0,0,0-.448.352q-.384.32-.544.448l-.512.384a7.616,7.616,0,0,1-.656.432,4.809,4.809,0,0,1-.624.3,6.352,6.352,0,0,1-2.944.32A5.685,5.685,0,0,1,169.3-.96a4.916,4.916,0,0,1-1.744-2.4,10.714,10.714,0,0,1,.128-6.432q1.12-3.968,3.488-5.472a4.726,4.726,0,0,1,2.032-.672,3.43,3.43,0,0,1,1.968.384,2.668,2.668,0,0,1,1.312,1.52,3.655,3.655,0,0,1-.032,2.288,9.893,9.893,0,0,1-2.864,4.256,13.78,13.78,0,0,1-4.528,2.752Zm17.888-6.592a3.927,3.927,0,0,0-1.088-2.384,2.269,2.269,0,0,0-1.76-.592,2.372,2.372,0,0,0-1.52.624,1.472,1.472,0,0,0-.56,1.136,2.989,2.989,0,0,0,1.088,1.92q.32.288.7.576l.992.7q.576.416.864.64a8.178,8.178,0,0,1,2.5,2.56,4.787,4.787,0,0,1,.16,4.1A3.5,3.5,0,0,1,186.144.176a5.338,5.338,0,0,1-3.232.24A4.617,4.617,0,0,1,180.1-1.392a4.675,4.675,0,0,1-.736-3.6.856.856,0,0,1,.368-.592.937.937,0,0,1,.672-.16.792.792,0,0,1,.576.352.975.975,0,0,1,.176.656,3.022,3.022,0,0,0,.4,2.3,2.867,2.867,0,0,0,1.776,1.12,3.369,3.369,0,0,0,2.064-.128,2.024,2.024,0,0,0,1.232-1.184,3.168,3.168,0,0,0-.064-2.656,6.611,6.611,0,0,0-1.984-1.984q-.192-.16-.832-.608l-1.088-.768a6.334,6.334,0,0,1-.8-.672,4.575,4.575,0,0,1-1.664-3.1,3,3,0,0,1,1.072-2.544,4.339,4.339,0,0,1,2.672-1.136,4.056,4.056,0,0,1,3.024.992,5.632,5.632,0,0,1,1.744,3.456.865.865,0,0,1-.16.672.879.879,0,0,1-.576.384.865.865,0,0,1-.672-.16A.879.879,0,0,1,186.912-11.328Zm10.5,0a3.927,3.927,0,0,0-1.088-2.384,2.269,2.269,0,0,0-1.76-.592,2.372,2.372,0,0,0-1.52.624,1.472,1.472,0,0,0-.56,1.136,2.989,2.989,0,0,0,1.088,1.92q.32.288.7.576l.992.7q.576.416.864.64a8.178,8.178,0,0,1,2.5,2.56,4.787,4.787,0,0,1,.16,4.1A3.5,3.5,0,0,1,196.64.176a5.338,5.338,0,0,1-3.232.24,4.617,4.617,0,0,1-2.816-1.808,4.675,4.675,0,0,1-.736-3.6.856.856,0,0,1,.368-.592.937.937,0,0,1,.672-.16.792.792,0,0,1,.576.352.975.975,0,0,1,.176.656,3.022,3.022,0,0,0,.4,2.3,2.867,2.867,0,0,0,1.776,1.12,3.369,3.369,0,0,0,2.064-.128,2.024,2.024,0,0,0,1.232-1.184,3.168,3.168,0,0,0-.064-2.656,6.611,6.611,0,0,0-1.984-1.984q-.192-.16-.832-.608l-1.088-.768a6.334,6.334,0,0,1-.8-.672,4.575,4.575,0,0,1-1.664-3.1,3,3,0,0,1,1.072-2.544,4.339,4.339,0,0,1,2.672-1.136,4.056,4.056,0,0,1,3.024.992,5.632,5.632,0,0,1,1.744,3.456.865.865,0,0,1-.16.672.879.879,0,0,1-.576.384.865.865,0,0,1-.672-.16A.879.879,0,0,1,197.408-11.328Zm7.712-2.88a.13.13,0,0,0-.1.032,2.4,2.4,0,0,0-.864.48,5.414,5.414,0,0,0-1.68,2.752,12.259,12.259,0,0,0-.624,4.288,7.291,7.291,0,0,0,.928,3.728,2.727,2.727,0,0,0,2.432,1.36,3.644,3.644,0,0,0,3.024-1.52,7.053,7.053,0,0,0,1.328-3.92,9.137,9.137,0,0,0-.656-4.368,4.578,4.578,0,0,0-2.416-2.64,1.649,1.649,0,0,0-.576-.128q-.032,0-.336-.016A3.463,3.463,0,0,1,205.12-14.208Zm1.536-1.632a4.05,4.05,0,0,1,.544.16,6.053,6.053,0,0,1,3.3,3.456,11.179,11.179,0,0,1,.864,5.376,10.484,10.484,0,0,1-.512,2.56,8.565,8.565,0,0,1-1.152,2.24A5.533,5.533,0,0,1,207.808-.4a5.353,5.353,0,0,1-2.592.624,4.636,4.636,0,0,1-2.384-.608,4.2,4.2,0,0,1-1.6-1.632,9.13,9.13,0,0,1-.848-2.176,11.152,11.152,0,0,1-.32-2.432,14.594,14.594,0,0,1,.752-4.992,7.1,7.1,0,0,1,2.256-3.552,4.158,4.158,0,0,1,1.6-.768,9.084,9.084,0,0,1,1.408-.1A.936.936,0,0,1,206.656-15.84Z" transform="translate(50.272 35)" fill="#fff"/></g></svg>