<svg xmlns="http://www.w3.org/2000/svg" xmlns:xlink="http://www.w3.org/1999/xlink" width="48" height="49" viewBox="0 0 48 49"><defs><clipPath id="b"><rect width="48" height="49"/></clipPath></defs><g id="a" clip-path="url(#b)"><g transform="translate(3 1)"><g transform="translate(0)"><path d="M3.792,147.134a7.426,7.426,0,0,1,4.441,1.531,4.083,4.083,0,0,1,1.838,3.591,2.024,2.024,0,0,0,1.168,2.038c2.322,1.28,4.623,2.6,6.925,3.911a.53.53,0,0,0,.729-.046c2.893-2.429,5.73-4.916,8.476-7.5a1.491,1.491,0,0,0,.538-1.577,2.3,2.3,0,0,1,1.029-2.715c1.684-1.394,3.415-2.756,5.124-4.124.153-.127.306-.273.459-.4s.328-.351.516-.153c.217.237-.035.4-.2.557l-2.946,2.779c-.594.559-1.185,1.121-1.786,1.672-.227.208-.418.412-.129.7s.45.008.626-.153q2.378-2.268,4.747-4.536c.153-.153.322-.435.551-.184s-.086.387-.239.533q-2.343,2.25-4.687,4.495c-.188.181-.531.343-.231.671s.495.044.7-.153l4.671-4.507c.162-.153.345-.412.564-.193s-.04.406-.2.559q-2.325,2.211-4.652,4.421c-.2.187-.524.355-.256.675.306.371.531.04.746-.165q2.3-2.193,4.586-4.387c.164-.153.325-.541.594-.291.323.3-.092.475-.254.66-1.421,1.635-2.853,3.263-4.28,4.9a9.677,9.677,0,0,1-1.139,1.119,1.62,1.62,0,0,1-1.718.319,1.776,1.776,0,0,0-2.122.554c-2.3,2.214-4.476,4.54-6.675,6.85-.79.832-.778.835.24,1.331a19.174,19.174,0,0,0,3.619,1.436,7.931,7.931,0,0,1,1.609.8,1.254,1.254,0,0,1,.538.632,2.41,2.41,0,0,1-.9,2.443,1.469,1.469,0,0,1-1.962.126,5.777,5.777,0,0,1-1.217-1.04,21.214,21.214,0,0,0-3.522-3.047c-.343-.233-.513-.262-.8.08a24.642,24.642,0,0,0-1.822,2.533c-.123.194-.24.392-.377.577-.513.7-1.072,1.341-2.069,1.144a3.249,3.249,0,0,1-2.017-2.144,1.678,1.678,0,0,1,.786-1.562,24.784,24.784,0,0,1,3-1.838c.807-.487.8-.484.047-1.024-1.926-1.378-3.972-2.585-5.951-3.89A1.994,1.994,0,0,0,8.412,155a5.177,5.177,0,0,1-1.926.694,4.9,4.9,0,0,1-2.867-.919,7.79,7.79,0,0,1-2.746-3.1A3.043,3.043,0,0,1,3.792,147.134Z" transform="translate(-0.499 -120.14)" fill="#fff"/><path d="M36.751,15.934c2.934-.394,4.6-2.262,4.594-4.988A6.646,6.646,0,0,0,39.691,6.6a2.968,2.968,0,0,0-3.726-.853c-.907.4-.907.4-1.072-.55-.519-3.162-3.158-4.6-6.086-3.32a6.629,6.629,0,0,0-2.867,2.34.569.569,0,0,1-.753.286,3.767,3.767,0,0,0-4.874,1.813,1.623,1.623,0,0,1-1.782,1.087,5.016,5.016,0,0,0-4.559,4.318,4.454,4.454,0,0,0,4.021,4.983.836.836,0,0,1,.8.648c1.507,4.816,3.043,9.623,4.54,14.442.181.582.319.493.68.153A15.418,15.418,0,0,1,26.632,30a23.137,23.137,0,0,1,6.963-2.893,7.445,7.445,0,0,1,4.075.046c.473.164.441-.047.371-.4-.657-3.276-1.283-6.557-1.96-9.828C35.945,16.283,35.973,16.038,36.751,15.934ZM25.826,5.149c.893-.17,2.205,1.979,2.6,3.9.415,2-.008,4.516-.919,4.7-.842.173-2.021-1.66-2.488-3.191C24.31,8.242,24.861,5.333,25.826,5.149Zm-5.8,2.887c.3-.054.666.522.818.977.271.81.055,1.851-.358,1.949-.112.026-.329,0-.7-.441a2.893,2.893,0,0,1-.221-1.286C19.577,9.147,19.652,8.1,20.03,8.035ZM34.783,15.92c.7,3.237,1.378,6.481,2.07,9.719.078.366.083.6-.415.533a13.333,13.333,0,0,0-12.121,4.634c-.132.142-.2.413-.439.375-.3-.047-.224-.357-.28-.559-1.277-4.539-2.557-9.078-3.81-13.629-.133-.485-.294-.744-.85-.755a5.084,5.084,0,0,1-2.057-.548A3.87,3.87,0,0,1,15.1,14.049a4.054,4.054,0,0,1-.3-2.956c.75-2.6,4.087-3.562,4.363-3.216.095.116-.187.361-.257,1.072a3.3,3.3,0,0,0,.074,1.029c.173.707.766,1.894,1.488,1.838.593-.044,1.089-.884,1.124-1.488a3.175,3.175,0,0,0-.894-2.45.9.9,0,0,1-.142-1.214,3.238,3.238,0,0,1,3.919-1.74c.548.153.341.459.236.756a9.906,9.906,0,0,0-.443,4.972,5.556,5.556,0,0,0,2.121,3.593,1.5,1.5,0,0,0,2.514-.56c1.213-2.3.553-6.116-1.427-8.283-.828-.907-.824-.9.133-1.738a5.406,5.406,0,0,1,1.531-1,3.426,3.426,0,0,1,4.7,2.009,19.859,19.859,0,0,1,.544,1.96c.109.444.205.881.364.888.135,0,.2-.306.384-.594A2.384,2.384,0,0,1,36.55,6,2.955,2.955,0,0,1,39.7,7.3a5.064,5.064,0,0,1-2.851,7.931,3.976,3.976,0,0,1-1.657.214C34.831,15.4,34.693,15.5,34.783,15.92Z" transform="translate(-11.905 -1.415)" fill="#fff" stroke="#fff" stroke-miterlimit="10" stroke-width="0.8"/></g></g></g></svg>